<?xml version="1.0" encoding="UTF-8" standalone="no"?>
<!-- Created with Inkscape (http://www.inkscape.org/) -->

<svg
   version="1.1"
   id="svg226"
   width="500"
   height="307"
   viewBox="0 0 500 307"
   sodipodi:docname="logo.svg"
   inkscape:version="1.2.2 (b0a8486541, 2022-12-01)"
   inkscape:export-filename="logo.png"
   inkscape:export-xdpi="100"
   inkscape:export-ydpi="100"
   xmlns:inkscape="http://www.inkscape.org/namespaces/inkscape"
   xmlns:sodipodi="http://sodipodi.sourceforge.net/DTD/sodipodi-0.dtd"
   xmlns="http://www.w3.org/2000/svg"
   xmlns:svg="http://www.w3.org/2000/svg">
  <defs
     id="defs230">
    <rect
       x="226.03314"
       y="88.020202"
       width="366.36293"
       height="104.50903"
       id="rect9862" />
  </defs>
  <sodipodi:namedview
     id="namedview228"
     pagecolor="#505050"
     bordercolor="#ffffff"
     borderopacity="1"
     inkscape:showpageshadow="0"
     inkscape:pageopacity="0"
     inkscape:pagecheckerboard="1"
     inkscape:deskcolor="#505050"
     showgrid="false"
     inkscape:zoom="1"
     inkscape:cx="274.99999"
     inkscape:cy="105"
     inkscape:window-width="1920"
     inkscape:window-height="1053"
     inkscape:window-x="0"
     inkscape:window-y="0"
     inkscape:window-maximized="1"
     inkscape:current-layer="g232" />
  <g
     inkscape:groupmode="layer"
     inkscape:label="Image"
     id="g232"
     transform="translate(-34.081236,-11.000001)">
    <rect
       style="fill:#f9f9f9;fill-opacity:1"
       id="rect7901"
       width="65.368942"
       height="61.243279"
       x="123.84885"
       y="155.87476" />
    <path
       style="fill:#44ddbb;fill-opacity:0.466667;stroke:none"
       d="m 34.081236,11.000001 c 2.4597,5.5531 6.5919,10.0799 8.4267,16 7.6379,24.6442 5.2325,45.832701 33.573298,57.000001 -0.2294,-11.053701 -5.844798,-21.0063 -9.999998,-31 l 18.999998,27 c 0.375,-8.7384 2.857,-17.181201 1.711,-26 -3.574,-27.5013 -25.837098,-42.926 -52.710998,-43 m 54.999998,69 9,-5 -6,9 c 19.263996,-0.0531 26.720996,-16.2945 33.999996,-32 -22.753,-1.7957 -32.652996,4.9283 -36.999996,28 m 65.999996,-19.3835 c -6.343,1.4328 -11.622,9.010999 -16,13.3835 -8.179,8.1691 -16.747,15.926997 -25.001,24.014997 -3.906,3.828011 -8.03,9.734011 -12.955,12.233011 -4.728996,2.4 -4.997996,-4.271 -5.039996,-7.248 -0.137,-9.750011 -4.265,-18.023309 -15.96,-13.258011 -10.520498,4.287 -3.718,32.007001 -5.3735,41.258001 -1.609198,8.993 -9.906298,15.038 -15.952098,21.155 -2.6326,2.664 -14.4335,11.256 -12.9707,15.502 0.9941,2.885 5.9305,2.33 8.2523,2.342 6.5158,0.035 16.9418,-2.094 21.257698,4.11 3.9469,5.673 1.7423,17.265 1.7423,23.891 v 50 c 0,4.794 -1.8292,14.423 1.0278,18.49 4.2122,5.997 21.3482,6.502 27.972196,6.502 7.181,0 14.927,-0.834 22,-2.076 32.348,-5.681 64.796,-22.823 88,-45.917 6.293,-6.263 18.73,-16.587 19.969,-25.999 0.756,-5.739 -5.444,-12.64 -5.879,-19 -0.53,-7.719 1.881,-15.308 1.881,-23 -0.001,-5.789 -2.386,-11.261 -2.508,-17 -0.069,-3.263 2.114,-6.824 1.133,-10 -1.53,-4.957 -8.034,-9.443 -11.596,-12.99999 -9.863,-9.848 -20.038,-19.382011 -30.039,-29.090308 -6.665,-6.4694 -23.357,-29.6885 -33.961,-27.2932 m -55.999996,13.3835 -1,1 1,-1 M 257.08123,160 c -6.501,-5.137 -8.678,-14.871 -12.68,-21.981 -1.363,-2.421 -4.627,-6.249 -7.141,-2.682 -3.627,5.146 0.859,14.178 1.506,19.663 1.081,9.158 -2.679,18.572 -1.555,28 1.306,10.962 9.645,11.737 2.501,23 -27.269,42.993 -82.907,73 -133.631,73 -29.049196,0 -63.417494,-17.585 -68.999994,-49 -2.7007,6.451 0.5252,16.429 2.1296,23 5.906,24.19 22.2023,43.318 44.870398,53.537 39.164996,17.656 87.149996,10.553 125.999996,-4.113 14.911,-5.629 30.009,-12.894 42,-23.598 39.011,-34.821 59.613,-97.234 35.489,-145.826 -7.484,-15.07599 -19.403,-29.73099 -34.49,-37.680001 -3.726,-1.963 -15.867,-6.694197 -18.606,-0.886 -2.553,5.411 10.082,17.302011 12.936,21.566011 9.246,13.81399 12.739,27.71599 9.671,43.99999 m -121.772,0.603 c 3.518,-1.586 14.163,-1.728 17.03,1.139 2.895,2.896 3.362,16.597 -0.692,18.655 -3.541,1.797 -16.161,1.847 -18.538,-1.715 -2.42,-3.627 -2.276,-16.061 2.2,-18.079 m 27.92,0 c 3.324,-1.451 14.322,-1.878 16.914,1 3.14,3.487 3.409,16.519 -1.365,18.794 -3.136,1.494 -15.194,1.934 -17.518,-1 -2.738,-3.458 -2.462,-16.859 1.969,-18.794 m -27.804,27 c 3.654,-1.694 15.133,-1.794 17.628,1.831 2.534,3.681 2.297,16.723 -2.2,18.824 -3.85,1.798 -14.261,1.875 -17.169,-1.576 -3.044,-3.613 -3.081,-16.842 1.741,-19.079 m 27.804,0 c 3.473,-1.516 14.427,-1.821 17.249,1 3.32,3.321 2.881,17.46 -1.676,19.655 -3.684,1.775 -15.141,2.016 -17.693,-1.692 -2.489,-3.616 -2.375,-17 2.12,-18.963 M 74.081234,317 v 1 h 4 z"
       id="path898" />
    <path
       style="fill:#0b59a0;fill-opacity:1;stroke-width:0.137819"
       d="M 40.17418,72.166626 C 28.71902,67.157857 21.869434,60.35215 17.618182,49.755123 15.819411,45.271357 14.788867,41.576638 12.127616,30.07028 10.661373,23.730735 9.762651,20.223054 8.7423658,16.857757 7.6997444,13.418787 7.0025001,11.975879 3.9261866,6.8909399 1.9032693,3.5471941 0.1378188,0.40089981 0.1378188,0.13950749 c 0,-0.06233694 1.0388092,-0.07101521 2.3084649,-0.019285 C 21.606778,0.90088765 37.210273,9.2834632 45.962349,23.498105 c 4.278309,6.948598 6.960069,16.342747 6.960069,24.380981 0,2.894504 -0.173869,4.953231 -0.908974,10.762813 -0.713161,5.636163 -1.013901,8.44097 -1.017765,9.492057 l -0.0027,0.740565 L 41.52818,55.42139 c -5.205625,-7.399222 -9.486247,-13.431659 -9.51249,-13.405415 -0.06216,0.06216 0.780986,2.05312 2.780252,6.565151 4.352064,9.821934 5.93217,14.495921 6.756948,19.987202 0.2723,1.812943 0.423011,4.27006 0.261605,4.26504 -0.06837,-0.0021 -0.806512,-0.302161 -1.640315,-0.666742 z"
       id="path2274"
       transform="translate(34.081236,11.000001)" />
    <path
       style="fill:#0b59a0;fill-opacity:1;stroke-width:0;stroke-dasharray:none"
       d="m 61.200237,261.34147 c -10.445044,-1.15216 -15.911583,-3.40966 -17.622523,-7.27752 -0.94607,-2.13875 -0.909464,2.15803 -0.399385,-46.87971 0.263064,-25.29029 0.262415,-38.25538 -0.002,-39.56576 -0.81384,-4.03352 -2.903705,-6.62932 -6.510188,-8.08624 -2.063926,-0.83377 -2.615424,-0.87137 -11.494812,-0.78366 -10.093383,0.0997 -11.934887,-0.13906 -12.943321,-1.67812 -0.58774,-0.89701 -0.583548,-1.09822 0.05787,-2.77775 0.796765,-2.0863 3.749273,-5.15261 14.193498,-14.74058 7.605291,-6.98178 10.796982,-10.70768 12.855926,-15.0077 l 1.399876,-2.92358 -0.02112,-7.01658 c -0.01162,-3.85913 -0.09932,-11.13884 -0.194906,-16.177137 -0.187517,-9.884349 0.08206,-12.242776 1.782257,-15.592417 1.544446,-3.042784 3.350866,-4.217196 7.728163,-5.024328 5.575193,-1.028012 9.396809,1.751212 10.942115,7.957517 0.318978,1.281088 0.744339,4.361041 0.945243,6.844336 0.577438,7.137386 1.810081,8.496589 5.807451,6.403693 1.838611,-0.962633 10.237692,-8.81989 10.237692,-9.577257 0,-0.139891 4.780051,-4.821168 10.622334,-10.402834 12.356603,-11.805388 16.868363,-16.237473 22.529303,-22.131455 2.36398,-2.461304 5.04689,-4.833226 6.31382,-5.581961 7.21234,-4.262392 14.26957,-0.122025 30.12523,17.674018 5.92542,6.650563 9.65777,10.369911 32.38526,32.272455 10.24973,9.8777 14.76401,14.49065 15.49497,15.83365 1.22618,2.2529 1.34737,4.75829 0.40441,8.36014 -0.75842,2.89696 -0.59085,5.50032 0.79982,12.42635 1.15904,5.7724 1.2753,10.51685 0.40736,16.62333 -1.05744,7.4397 -1.38483,12.32193 -1.00578,14.99851 0.235,1.65939 1.25996,4.66015 2.92987,8.57767 2.82107,6.61811 3.26462,8.54567 2.56994,11.16845 -1.38371,5.22421 -5.04871,10.21377 -13.99807,19.05706 -11.3858,11.25085 -18.04146,17.01323 -26.47217,22.91926 -22.42168,15.7072 -46.87177,25.57796 -72.77632,29.38056 -6.275597,0.92121 -21.604405,1.33289 -27.091825,0.72759 z m 53.614483,-63.32225 c 4.19483,-1.06381 5.78727,-4.22166 5.79666,-11.49493 0.0114,-8.82771 -2.22409,-11.02651 -11.26956,-11.08458 -5.33786,-0.0343 -7.35193,0.36457 -8.95678,1.77365 -2.145468,1.88374 -2.737528,4.02393 -2.737528,9.89564 0,4.63116 0.08392,5.23363 0.974526,6.99633 0.535989,1.06084 1.413062,2.24097 1.949052,2.62252 2.47859,1.7644 9.77123,2.42558 14.24363,1.29137 z m 29.3102,-0.37394 c 2.56183,-1.04817 3.6895,-3.27565 4.39439,-8.68024 0.74641,-5.723 -0.69265,-11.05194 -3.32331,-12.30641 -3.10935,-1.48274 -10.24093,-1.76766 -14.89734,-0.59516 -3.4127,0.85933 -4.95073,4.42697 -4.92985,11.43535 0.0215,7.21267 1.16209,9.23712 5.9737,10.60274 2.54102,0.72119 10.6084,0.43321 12.78241,-0.45628 z M 115.9686,170.0866 c 0.85758,-0.21663 1.95942,-0.76475 2.44851,-1.21804 3.09816,-2.87137 2.83942,-15.69644 -0.37117,-18.39797 -0.61986,-0.52159 -1.77938,-1.14335 -2.5767,-1.3817 -2.3914,-0.71489 -8.24286,-0.90694 -11.40633,-0.37436 -2.45245,0.41287 -3.09554,0.68891 -4.111954,1.765 -1.655556,1.75276 -2.498349,4.98783 -2.498349,9.58992 0,4.42959 0.761249,7.36628 2.203586,8.50082 2.604017,2.04832 11.085327,2.8367 16.312407,1.51633 z m 26.69421,0.0309 c 3.80049,-0.81506 5.34361,-3.27103 5.73389,-9.1258 0.22943,-3.4418 -0.29012,-6.98233 -1.33939,-9.12752 -1.05455,-2.15596 -3.48198,-3.17524 -8.17818,-3.43402 -5.47653,-0.30177 -9.26851,0.4008 -10.88433,2.01662 -1.73325,1.73325 -2.61868,4.9455 -2.638,9.57039 -0.0272,6.50757 1.03959,8.86159 4.50589,9.94292 2.08429,0.65022 10.04574,0.74812 12.80012,0.15741 z"
       id="path5594"
       transform="translate(34.081236,11.000001)" />
    <path
       style="fill:#4db751;fill-opacity:1;stroke-width:0;stroke-dasharray:none"
       d="M 38.640715,71.288422 C 31.133271,67.793126 24.708007,62.255188 21.030062,56.109793 17.618693,50.409818 15.972952,45.515009 12.376671,30.37263 8.7927637,15.282355 8.3122236,13.971312 3.1119042,5.0958275 1.5891612,2.4969333 0.51753216,0.31248137 0.73050624,0.24149002 0.94348033,0.17049865 3.1169086,0.30265053 5.5603469,0.53516087 29.931013,2.854201 46.801426,16.829862 51.712629,38.768287 c 1.138865,5.087321 1.097427,12.974988 -0.118707,22.59564 l -0.85987,6.802313 -9.256275,-13.12213 c -5.090948,-7.217173 -9.308489,-12.965483 -9.372309,-12.774022 -0.06382,0.19146 1.052493,3.035379 2.480696,6.319817 3.658641,8.413778 4.862656,11.675704 5.9093,16.00954 0.987234,4.087836 1.509538,7.981939 1.065476,7.943785 -0.151794,-0.01306 -1.465896,-0.577702 -2.920225,-1.254808 z"
       id="path7048"
       transform="translate(34.081236,11.000001)" />
    <path
       style="fill:#4db751;fill-opacity:1;stroke-width:0;stroke-dasharray:none"
       d="m 58.562796,72.769561 c 0,-0.117411 1.249981,-2.098343 2.777735,-4.402073 1.527754,-2.303729 2.710817,-4.255516 2.629029,-4.337304 -0.08179,-0.08179 -2.023777,0.895269 -4.315532,2.171238 -2.291755,1.275968 -4.214623,2.272145 -4.273041,2.213727 -0.189323,-0.189322 1.004257,-5.045795 1.974434,-8.033633 3.723061,-11.465848 9.951292,-17.188399 20.58415,-18.91289 3.522125,-0.571236 12.492737,-0.740692 13.264411,-0.250567 0.590876,0.375292 -5.430866,12.501647 -8.371186,16.857579 -6.175407,9.148545 -12.946106,13.627335 -22.178472,14.670968 -1.15034,0.130036 -2.091528,0.140365 -2.091528,0.02295 z"
       id="path7119"
       transform="translate(34.081236,11.000001)" />
    <path
       style="fill:#4db751;fill-opacity:1;stroke-width:0;stroke-dasharray:none"
       d="M 92.572867,305.48715 C 75.91751,304.14267 63.161496,301.12833 50.567036,295.56088 37.906174,289.96407 26.674211,281.08914 18.710131,270.38916 11.982146,261.34991 8.1714906,253.08492 4.9361479,240.51457 2.3597215,230.50431 1.7285262,225.76987 2.4159329,221.61108 c 0.2341732,-1.41675 0.8577638,-1.89468 0.8577638,-0.65741 0,1.27568 2.4630242,8.25802 4.0053224,11.35455 10.1432169,20.3649 34.2252309,34.26211 62.0142269,35.78706 10.034623,0.55066 26.201995,-1.42794 39.102484,-4.78544 38.72044,-10.07746 74.11017,-34.15535 94.95695,-64.60529 3.93752,-5.75135 5.15949,-8.41871 5.18137,-11.31011 0.0153,-2.02792 -0.2002,-2.69511 -2.19545,-6.79551 -1.21687,-2.50074 -2.42814,-5.44706 -2.69172,-6.54739 -0.70238,-2.93211 -0.52898,-9.54259 0.4246,-16.18661 0.50067,-3.48843 0.83561,-7.56851 0.83608,-10.18484 7.3e-4,-3.8399 -0.15837,-4.98138 -1.32249,-9.48992 -1.6567,-6.41627 -1.92677,-8.62972 -1.34752,-11.04428 0.93151,-3.88297 3.17819,-5.04192 5.61921,-2.89867 1.65378,1.45204 2.86311,3.60553 5.97325,10.63677 1.40005,3.16516 3.19504,6.84807 3.98888,8.18424 1.49969,2.52426 4.37965,5.88497 5.04313,5.88497 1.16297,0 1.60431,-14.25634 0.62017,-20.03276 -1.18372,-6.94781 -4.84263,-16.07663 -9.00987,-22.47925 -0.86287,-1.32571 -3.37021,-4.5519 -5.57186,-7.169316 -6.23727,-7.415075 -8.45627,-11.020592 -8.57223,-13.92847 -0.26986,-6.767239 11.98932,-5.588579 23.83135,2.291266 15.90217,10.581524 29.34862,29.73037 35.33002,50.31286 1.4185,4.88119 2.84065,11.85395 3.54299,17.37119 0.60015,4.71444 0.5992,19.18711 -0.001,24.55272 -3.2101,28.66863 -15.68401,56.07922 -35.65247,78.34395 -12.70387,14.16476 -26.63007,23.28279 -48.96205,32.05736 -21.2061,8.33221 -43.51775,13.55806 -64.3827,15.07979 -4.63596,0.33811 -17.908674,0.42136 -21.4609,0.13461 z"
       id="path7121"
       transform="translate(34.081236,11.000001)" />
    <text
       xml:space="preserve"
       transform="translate(14.197648,15.565438)"
       id="text9860"
       style="font-size:74.6667px;white-space:pre;shape-inside:url(#rect9862);shape-padding:0.189034;display:inline;fill:#0b59a0;fill-opacity:1;stroke-width:0;stroke-dasharray:none"><tspan
         x="226.22266"
         y="156.14636"
         id="tspan1583"><tspan
           style="font-weight:bold;font-family:'Dancing Script';-inkscape-font-specification:'Dancing Script Bold'"
           id="tspan1581">Life Saver</tspan></tspan></text>
    <text
       xml:space="preserve"
       style="font-style:normal;font-variant:normal;font-weight:bold;font-stretch:normal;font-size:42.6667px;font-family:'Dancing Script';-inkscape-font-specification:'Dancing Script Bold';fill:#4db751;fill-opacity:1;stroke-width:0"
       x="315.97415"
       y="229.49852"
       id="text3255"><tspan
         sodipodi:role="line"
         id="tspan3253"
         x="315.97415"
         y="229.49852"
         style="font-style:normal;font-variant:normal;font-weight:500;font-stretch:normal;font-size:42.6667px;font-family:Fredoka;-inkscape-font-specification:'Fredoka Medium';fill:#4db751;fill-opacity:1">Home Care</tspan></text>
    <rect
       style="fill:#0b59a0;fill-opacity:1;stroke-width:0"
       id="rect1227"
       width="211.77467"
       height="5.6295671"
       x="316.62863"
       y="187.91394"
       ry="2.8147836" />
  </g>
</svg>
